<?xml version="1.0" encoding="iso-8859-1"?>
<!-- Generator: Adobe Illustrator 21.0.0, SVG Export Plug-In . SVG Version: 6.00 Build 0)  -->
<svg version="1.1" id="Capa_1" xmlns="http://www.w3.org/2000/svg" xmlns:xlink="http://www.w3.org/1999/xlink" x="0px" y="0px"
	 viewBox="0 0 512 512" style="enable-background:new 0 0 512 512;" xml:space="preserve">
<path style="fill:#46F8FF;" d="M444.08,385.068c-52.724,52.712-124.614,73.152-192.218,62.394
	C105.863,424.58,22.009,266.326,85.953,132.215C143.687,11.082,294.504-31.445,406.66,40.419
	C526.704,117.353,544.218,284.931,444.08,385.068z"/>
<path style="fill:#00E7F0;" d="M444.082,385.065c-42.799,42.799-98.237,64.325-153.756,65.144V5.381
	c39.847,0.546,80.109,11.83,116.336,35.034C526.708,117.35,544.221,284.927,444.082,385.065z"/>
<path style="fill:#76F08A;" d="M370.271,295.82c-0.172,14.368-5.854,27.754-16.036,37.835l-88.258,108.399
	c-2.902,3.569-7.239,5.591-11.759,5.591c-0.779,0-1.567-0.061-2.356-0.182c-17.29-2.71-34.266-7.512-50.463-14.256
	c-5.652-2.356-9.332-7.876-9.332-14.004V274.081c0-13.842-5.389-26.844-15.166-36.622l-95.366-95.376
	c24.644-58.997,74.202-105.486,136.103-125.719L324.65,123.378c18.396,18.375,18.463,48.208,0,66.671l-41.131,41.131
	c10.089,1.305,39.218-5.988,64.093,18.907C350.308,253.751,370.605,267.18,370.271,295.82z"/>
<g>
	<path style="fill:#00DD80;" d="M324.652,190.047l-34.326,34.326V89.049l34.326,34.326
		C343.045,141.757,343.115,171.584,324.652,190.047z"/>
	<path style="fill:#00DD80;" d="M370.273,295.817c-0.172,14.368-5.854,27.754-16.036,37.835l-63.911,78.491V231.289
		c13.205-0.364,36.703-1.8,57.288,18.796C350.304,253.755,370.607,267.184,370.273,295.817z"/>
	<path style="fill:#00DD80;" d="M507.475,199.948H444.06c-33.497,0-60.756-27.269-60.756-60.766V27.386
		C451.178,59.995,498.35,125.981,507.475,199.948z"/>
</g>
<path style="fill:#00E7F0;" d="M107.64,357.799v133.656c0,8.382-6.795,15.166-15.166,15.166H15.166
	C6.795,506.621,0,499.837,0,491.455V357.799c0-8.372,6.795-15.166,15.166-15.166h77.308
	C100.846,342.633,107.64,349.427,107.64,357.799z"/>
<path style="fill:#00D7DF;" d="M107.64,424.632v66.823c0,8.382-6.795,15.166-15.166,15.166H15.166
	C6.795,506.621,0,499.837,0,491.455v-66.823H107.64z"/>
<path style="fill:#FFBD86;" d="M490.853,429.758l-92.333,53.79c-25.934,15.106-55.499,23.093-85.508,23.093H77.308V357.799
	c0-34.68,26.895-57.976,66.934-57.976c11.446,1.573,61.113-8.133,82.899,27.886c3.61,5.965,9.686,9.524,16.238,9.524h50.534
	c31.553,0,53.733,31.213,43.558,60.837v0.01c37.172-4.851,40.856-12.998,114.759-43.851c20.378-9.057,44.32-0.569,54.68,18.746
	C517.768,393.248,510.721,418.181,490.853,429.758z"/>
<g>
	<path style="fill:#F6A96C;" d="M490.853,429.758l-92.333,53.79c-25.934,15.106-55.499,23.093-85.508,23.093h-57.036V337.234h37.936
		c31.553,0,53.733,31.213,43.558,60.837v0.01c13.926-1.817,25.719-4.288,41.141-11.162l73.617-32.688
		c20.378-9.057,44.32-0.569,54.68,18.746C517.768,393.248,510.721,418.181,490.853,429.758z"/>
	<path style="fill:#F6A96C;" d="M501.945,365.687c-126.176,55.641-109.49,48.284-111.017,48.957
		c-21.85,9.706-45.044,14.62-68.946,14.62H207.536c-8.372,0-15.166-6.784-15.166-15.166c0-8.372,6.795-15.166,15.166-15.166h114.445
		c19.698,0,38.828-4.076,56.631-12.012l73.617-32.688C469.701,346.465,490.014,351.571,501.945,365.687z"/>
</g>
<path style="fill:#EA9B58;" d="M501.945,365.687c-126.176,55.641-109.49,48.284-111.017,48.957
	c-21.85,9.706-45.044,14.62-68.946,14.62h-66.004v-30.333h66.004c19.698,0,38.828-4.076,56.631-12.012l73.617-32.688
	C469.701,346.465,490.014,351.571,501.945,365.687z"/>
<path style="fill:#46F8FF;" d="M161.139,44.268c-27.047,18.564-49.715,42.89-66.277,71.13
	C111.94,86.147,134.78,62.235,161.139,44.268z"/>
<path style="fill:#00DD80;" d="M217.639,16.362l0.091,0.091c-17.815,5.804-34.923,13.852-50.848,24.013
	C182.535,30.417,199.561,22.277,217.639,16.362z"/>
<g>
</g>
<g>
</g>
<g>
</g>
<g>
</g>
<g>
</g>
<g>
</g>
<g>
</g>
<g>
</g>
<g>
</g>
<g>
</g>
<g>
</g>
<g>
</g>
<g>
</g>
<g>
</g>
<g>
</g>
</svg>
